<?xml version="1.0" encoding="UTF-8"?>
<svg id="Layer_1" xmlns="http://www.w3.org/2000/svg" viewBox="0 0 915.52 274.25">
  <defs>
  </defs>
  <path class="cls-1"
    d="M454.12,182.67c-50.97-.87-90.42-36.52-93.19-87.03-2.53-46.21,29.26-87.61,77.11-94.25,37.11-5.14,70.18,3.59,94.41,33.37,47.94,58.92,6.75,134.73-55.51,145.28-7.54,1.28-15.21,1.77-22.82,2.63ZM455.68,10.94c-18.48-.51-33.95,6.2-46.9,19.06-27.95,27.76-31.96,78-8.95,111.85,24.16,35.54,75.69,39.95,105.61,9.04,26.13-26.99,31.41-65.09,13.87-100.28-13.08-26.24-34.61-38.97-63.63-39.68Z" />
  <path class="cls-1"
    d="M892.92,92.02h-106.58c0,11.24,0,21.96,0,32.69,0,6.54-1.04,13.28.2,19.58,3.58,18.29-6.91,26.81-22.28,33.32-.14-3.09-.38-6.04-.39-8.99-.03-46.06.26-92.12-.25-138.18-.1-9.13,2.36-15.06,10.5-19.01,3.73-1.81,7.02-4.51,12.01-7.79v75.67h106.34c0-9.07,0-18.32,0-27.56,0-4.26.69-8.67-.14-12.77-3.73-18.29,5.91-27.9,22.53-34.1.14,2.95.4,5.87.4,8.8.04,46.06-.18,92.12.25,138.18.08,8.65-1.82,14.69-9.94,18.5-4.05,1.9-7.59,4.9-12.66,8.26v-86.59Z" />
  <path class="cls-1"
    d="M151.12,181.82C104.12,135.59,58.2,90.41,12.28,45.23c-.74.28-1.49.57-2.23.85,0,2.96,0,5.92,0,8.87-.04,33-.36,66,.08,98.99.12,9.08-3.06,15.7-10.13,22.35V.14c47.23,46.45,93.33,91.78,141.4,139.05,0-5.27,0-8.17,0-11.06,0-33,.31-66-.17-98.99-.13-9.04,2.51-16,9.89-22.72v175.4Z" />
  <path class="cls-1"
    d="M454.37,250.91c-2.45,7.19-3.85,11.96-5.74,16.53-.75,1.82-2.58,3.2-3.91,4.78-1.55-1.66-3.8-3.05-4.53-5.02-2.71-7.33-4.92-14.84-6.31-22.76,7.72,3.86,5.89,13.14,11.32,19.65,2.03-5.67,3.7-10.78,5.73-15.75.66-1.63,2.26-2.88,3.42-4.3,1.34,1.51,3.21,2.8,3.93,4.56,1.93,4.68,3.38,9.57,5.8,16.67,3.37-8.6,6.01-15.33,8.65-22.07,1.16.46,2.32.92,3.47,1.38-2.86,8.57-5.64,17.18-8.86,25.62-.15.4-5.67,0-6.28-1.22-2.44-4.9-3.93-10.27-6.69-18.08Z" />
  <path class="cls-1"
    d="M910.52,263.98c1.48,2.4,2.96,4.79,4.44,7.19-.23.41-.46.81-.7,1.22-4.93-3.28-9.85-6.57-15.38-10.26-1.72,4.98-2.66,7.7-3.61,10.43l-2.29-.49v-27.7c7.33-.24,16.03-3.3,20.69,4.54,2.13,3.58-.42,9.94-.85,15.04-.77.01-1.54.02-2.31.03ZM897.48,246.76v14.09c4.62-1.34,8.52-2.04,11.92-3.74.92-.46,1.1-5.33.28-5.79-3.36-1.87-7.24-2.82-12.2-4.56Z" />
  <path class="cls-1"
    d="M1.82,271.23v-26.32h19.99c-3.06,7.67-15.73-2.88-15.42,10.09,4.63.49,8.91.94,13.52,1.42-1.37,7.97-16.7-2.42-12.93,11.16,5.07.5,10.21,1.01,15.35,1.53-.04.71-.08,1.42-.12,2.13H1.82Z" />
  <path class="cls-1"
    d="M290.93,244.7h19.9c-2.89,7.77-16.3-2.6-15.41,10.48,4.7.4,8.94.77,13.49,1.15-1.69,7.91-16.7-2.26-13,11.27,5.11.52,10.14,1.03,15.17,1.54-.06.75-.11,1.5-.17,2.25h-20v-26.69Z" />
  <path class="cls-1"
    d="M768.32,273.35c-8.92-11.78-18.06-10.74-27.4.89-.18-.97-.35-1.94-.53-2.91,3.65-8.17,7.13-16.42,11.04-24.47,2.08-4.28,5.09-4.59,7.31.02,3.86,8.05,7.45,16.23,11.15,24.36-.52.7-1.05,1.4-1.57,2.1ZM760.5,261.55c-1.8-4.02-3.35-7.48-5.64-12.59-2.2,5.31-3.54,8.56-5.21,12.59h10.85Z" />
  <path class="cls-1"
    d="M618.88,247.34c-3.39.25-6.89.08-10.14.92-1.84.47-3.25,2.6-4.86,3.98,1.53,1.15,2.9,2.91,4.61,3.33,2.74.68,5.69.48,8.56.65.05.92.11,1.84.16,2.77-4.07.54-8.15,1.08-13.34,1.78-.8,13.21,12.45,3.68,16.16,10.48h-20.29v-26.3h19.03c.03.8.07,1.61.1,2.41Z" />
  <path class="cls-1"
    d="M145.7,243.25c3.24,4.4,6.48,8.8,10.15,13.78,3.46-4.69,6.8-9.21,10.13-13.73.49.4.98.8,1.47,1.21-3.95,9.24-7.89,18.47-11.63,27.23-3.94-8.9-7.9-17.85-11.85-26.8.58-.57,1.16-1.13,1.74-1.7Z" />
</svg>